<?xml version="1.0" encoding="UTF-8" standalone="no"?>
<svg
   xmlns:dc="http://purl.org/dc/elements/1.1/"
   xmlns:cc="http://creativecommons.org/ns#"
   xmlns:rdf="http://www.w3.org/1999/02/22-rdf-syntax-ns#"
   xmlns:svg="http://www.w3.org/2000/svg"
   xmlns="http://www.w3.org/2000/svg"
   xmlns:sodipodi="http://sodipodi.sourceforge.net/DTD/sodipodi-0.dtd"
   xmlns:inkscape="http://www.inkscape.org/namespaces/inkscape"
   width="300"
   height="300"
   viewBox="0 0 300 300"
   version="1.1"
   id="svg2216"
   inkscape:version="1.0.1 (3bc2e813f5, 2020-09-07)"
   sodipodi:docname="_MASTER-FRAME-FONT-NEW.svg">
  <defs
     id="defs2210" />
  <sodipodi:namedview
     id="base"
     pagecolor="#ffffff"
     bordercolor="#666666"
     borderopacity="1.0"
     inkscape:pageopacity="0.0"
     inkscape:pageshadow="2"
     inkscape:zoom="0.98994949"
     inkscape:cx="233.17409"
     inkscape:cy="184.99516"
     inkscape:document-units="px"
     inkscape:current-layer="layer1"
     showgrid="false"
     units="px"
     inkscape:window-width="1366"
     inkscape:window-height="705"
     inkscape:window-x="-8"
     inkscape:window-y="-8"
     inkscape:window-maximized="1"
     fit-margin-top="10"
     fit-margin-left="10"
     fit-margin-bottom="10"
     fit-margin-right="10"
     inkscape:showpageshadow="false"
     scale-x="1"
     inkscape:document-rotation="0" />
  <metadata
     id="metadata2213">
    <rdf:RDF>
      <cc:Work
         rdf:about="">
        <dc:format>image/svg+xml</dc:format>
        <dc:type
           rdf:resource="http://purl.org/dc/dcmitype/StillImage" />
        <dc:title />
      </cc:Work>
    </rdf:RDF>
  </metadata>
  <g
     inkscape:label="Layer 1"
     inkscape:groupmode="layer"
     id="layer1"
     transform="translate(0,0)">
    
<g
       id="g21">
      <path
         id="path848"
         style="fill:#010101;fill-opacity:1;fill-rule:evenodd;stroke-width:14;stroke-linecap:square;paint-order:markers fill stroke;stop-color:#000000"
         d="M 90.816406 75 C 81.586811 75 72.733972 76.388252 64.257812 79.166016 C 55.970012 81.789459 49.188119 85.880019 43.914062 91.435547 C 38.82837 96.991074 36.285156 103.70389 36.285156 111.57422 C 36.285156 118.05567 38.075476 123.76683 41.654297 128.70508 C 45.233117 133.48901 49.564693 137.57761 54.650391 140.97266 C 59.924447 144.21338 66.986966 148.14774 75.839844 152.77734 C 84.881086 157.25263 92.135246 161.26509 97.597656 164.81445 C 103.06007 168.2095 107.67423 172.4543 111.44141 177.54688 C 115.20859 182.63944 117.0918 188.58101 117.0918 195.37109 C 117.0918 204.32167 114.07827 210.80213 108.05078 214.81445 C 102.02329 218.67246 94.583346 220.60156 85.730469 220.60156 C 72.733688 220.60156 62.185384 216.51101 54.085938 208.33203 C 45.986496 200.15306 39.676871 190.201 35.15625 178.47266 C 34.967891 177.85538 34.307888 177.62302 33.177734 177.77734 C 32.235939 177.93167 31.858516 178.31827 32.046875 178.93555 L 34.873047 212.03711 C 34.873047 213.27167 35.060782 214.19717 35.4375 214.81445 C 35.814218 215.43174 36.474221 215.97064 37.416016 216.43359 C 42.878431 219.21136 49.282901 221.29666 56.628906 222.68555 C 63.974912 224.22875 71.414854 225 78.949219 225 C 90.81584 225 101.17447 223.30325 110.02734 219.9082 C 119.06859 216.35884 125.94532 211.57317 130.6543 205.55469 C 135.55164 199.38188 138 192.51481 138 184.95312 C 138 178.00872 136.02194 171.99101 132.06641 166.89844 C 128.11086 161.80587 123.30702 157.56106 117.65625 154.16602 C 112.19384 150.61665 104.75389 146.44994 95.335938 141.66602 C 86.294701 137.19073 79.232182 133.41062 74.146484 130.32422 C 69.060787 127.0835 64.727263 123.30339 61.148438 118.98242 C 57.569617 114.50713 55.78125 109.33682 55.78125 103.47266 C 55.78125 96.373927 58.324458 90.510466 63.410156 85.880859 C 68.684213 81.251253 76.029311 78.935547 85.447266 78.935547 C 97.878969 78.935547 107.39181 82.639505 113.98438 90.046875 C 120.7653 97.454245 125.19172 105.32491 127.26367 113.6582 C 127.45203 114.27548 128.01719 114.58398 128.95898 114.58398 C 130.08914 114.42967 130.6543 114.04306 130.6543 113.42578 L 129.24023 84.492188 C 129.24023 82.794665 127.8293 81.40446 125.00391 80.324219 C 114.64416 76.774854 103.24811 75 90.816406 75 z M 107.88086 81.226562 C 108.15036 81.226562 112.06433 82.321804 116.57812 83.660156 L 124.78516 86.091797 L 125.41016 92.572266 C 125.75439 96.135886 125.87261 99.149682 125.67188 99.269531 C 125.47116 99.389389 123.40961 95.947153 121.0918 93.154297 C 118.774 90.361441 116.58167 87.820772 113.97266 85.591797 C 111.36366 83.36283 107.61137 81.226563 107.88086 81.226562 z M 51.074219 90.146484 C 51.095379 90.14387 51.1143 90.146645 51.126953 90.154297 C 51.215083 90.207607 50.725624 91.503825 50.041016 93.033203 C 49.356423 94.562586 48.519905 97.242856 48.179688 98.990234 C 47.334654 103.33045 47.854013 111.40585 49.203125 114.88477 C 52.266539 122.78424 58.741444 129.67025 68.693359 135.61328 C 73.251369 138.33522 77.262164 140.43357 98.96875 151.44336 C 112.70326 158.40964 118.40421 162.31587 123.24219 168.07812 C 128.25169 174.04467 129.86719 178.40593 129.86719 185.96094 C 129.86719 193.60899 127.36502 200.17059 122.26953 205.88086 C 120.09403 208.31885 117.749 210.32043 118.33398 209.24023 C 118.50401 208.92625 119.16319 207.23174 119.80078 205.47461 C 121.40291 201.05935 121.52876 189.8102 120.0293 185.02148 C 117.40846 176.65163 111.1231 168.90158 101.86328 162.62695 C 97.275174 159.51798 89.092505 155.03195 76.462891 148.70117 C 55.438269 138.16226 48.259105 132.85928 43.511719 124.36523 C 39.022957 116.33391 39.414237 104.94461 44.447266 97.205078 C 45.797519 95.128749 50.418836 90.228094 51.074219 90.146484 z M 149.95898 142.98633 A 6.6557281 6.6557281 0 0 0 143.34375 149.64258 A 6.6557281 6.6557281 0 0 0 150 156.29883 A 6.6557281 6.6557281 0 0 0 156.65625 149.64258 A 6.6557281 6.6557281 0 0 0 150 142.98633 A 6.6557281 6.6557281 0 0 0 149.95898 142.98633 z M 38.072266 195.78125 C 44.640967 206.77492 46.944564 211.32211 65.294922 221.95312 C 64.706364 221.95141 60.780926 220.91721 56.572266 219.6543 C 47.11738 216.81713 41.408617 214.50729 40.492188 213.14648 C 39.912713 212.28604 38.064367 199.02094 38.072266 195.78125 z " />
    </g>



<g
       aria-label="A"
       transform="matrix(0.24549692,0,0,0.37596513,288.99332,64.586318)"
       id="g22"
       style="font-size:629.107px;line-height:1.25;font-family:'SunCatcherStudio';-inkscape-font-specification:'SunCatcherStudio';fill:#010101;fill-opacity:1;stroke:none;stroke-width:49.3737;stroke-linecap:square;stroke-linejoin:miter;stroke-miterlimit:4;stroke-dasharray:none;stroke-opacity:1;paint-order:markers fill stroke">
      <path
         id="path20"
         style="font-style:normal;font-variant:normal;font-weight:500;font-stretch:normal;font-size:629.107px;font-family:'SunCatcherStudio';-inkscape-font-specification:'SunCatcherStudio Medium';fill:#010101;fill-opacity:1;stroke:none;stroke-width:49.3737;stroke-linecap:square;stroke-linejoin:miter;stroke-miterlimit:4;stroke-dasharray:none;stroke-opacity:1;paint-order:markers fill stroke"
         d="m 245.61025,30.007812 c -0.45985,-0.02839 -5.73057,0.01535 -6.31142,0.128907 -2.32342,0 -3.67723,0.680236 -4.06445,2.042969 L 111.51172,366.73047 c -8.90646,24.07494 -16.846138,42.24518 -23.816408,54.50976 -6.970269,12.26459 -14.327525,20.8959 -22.072265,25.89258 -7.35751,4.99669 -8.072139,6.46365 -18.914789,6.46365 -1.54895,0 -2.324219,1.36243 -2.324219,4.08789 0,2.72547 0.775269,4.08985 2.324219,4.08985 7.74475,0 9.427486,0.57569 21.819086,-0.33279 13.94055,-0.9085 25.945502,-1.36328 36.013676,-1.36329 10.84264,10e-6 23.62092,0.45479 38.33593,1.36329 13.16607,0.90848 13.43357,0.63461 20.40384,0.63461 1.93619,0 2.9043,-1.36438 2.9043,-4.08985 0,-2.72546 -0.96811,-4.08789 -2.9043,-4.08789 -18.20015,0 -19.65369,-2.90576 -29.33462,-10.17367 -9.68094,-7.2679 -14.52149,-18.16927 -14.52149,-32.70508 0,-9.99337 2.7115,-22.71195 8.13281,-38.15625 l 32.32618,-87.89648 h 133.64784 l 48.55148,117.19531 c 5.80856,13.62732 8.71289,24.30129 8.71289,32.02344 0,7.72215 -2.90433,13.17381 -8.71289,16.35351 -5.80856,2.72547 -4.1311,3.35922 -17.29716,3.35922 -1.54895,0 -2.32422,1.36243 -2.32422,4.08789 0,2.72547 0.77527,4.08985 2.32422,4.08985 6.58303,0 7.6438,0.27387 20.80987,-0.63461 13.16607,-0.9085 24.20292,-1.36327 33.10938,-1.36329 6.97027,10e-6 18.58759,0.45479 34.85156,1.36329 15.4895,0.90848 19.22665,0.33279 26.58416,0.33279 1.93619,0 2.9043,-1.36438 2.9043,-4.08985 0,-2.72546 -0.96811,-4.99727 -2.9043,-4.99727 -11.61712,0 -9.63725,-3.96463 -18.93094,-15.77497 -8.90647,-11.81035 -20.13615,-34.29526 -33.68946,-67.45508 L 248.11415,32.179688 c -0.29043,-1.362733 -1.12437,-2.086705 -2.5039,-2.171876 z m -7.09182,37.0933 116.99134,284.379358 c 13.9313,31.63677 24.54294,65.57611 45.91406,93.23633 1.41182,2.85368 8.34042,6.16347 5.18945,8.82812 -21.32913,-2.38787 -27.0453,-2.16968 -47.94336,-1.39453 -4.00969,-1.92611 -1.64176,-4.23627 -0.53711,-6.43359 2.86164,-9.0333 1.97548,-18.85063 -0.17187,-27.94922 -11.67842,-32.75112 -25.77382,-64.78226 -38.76953,-97.10352 L 228.56558,95.580078 Z m -16.4604,47.492948 63.42743,155.3825 H 166.74053 Z M 106.73659,400.78888 c -4.20996,26.19333 -1.97044,34.2263 18.17187,50.97823 -15.19949,-3.24159 -23.77815,-2.80822 -50.558851,-1.43508 16.612796,-13.93067 23.183459,-28.31178 32.386981,-49.54315 z"
         transform="matrix(1.0830687,0,0,0.92330246,-565.36186,0)"
         sodipodi:nodetypes="scccscssscscsssssccccscssssscssscccscccccccccccccccccc" />
    </g>



  </g>
</svg>
